<svg xmlns="http://www.w3.org/2000/svg" viewBox="-10 0 15049 2048">
  <path fill="currentColor" d="M14248 1029h502c0 -139 -87 -352 -250 -352c-173 0 -240 212 -252 352zM14977 1097h-731c0 155 54 416 254 416c125 0 246 -81 281 -203l106 39c-78 147 -219 244 -387 244c-282 0 -444 -232 -444 -496c0 -260 167 -498 444 -498c204 0 338 120 410 303c15 41 24 84 26 127h41v68zM13914 603l13 31c-43 30 -107 65 -107 123c0 40 10 58 29 92l-37 14c-77 -122 -167 -186 -315 -186c-86 0 -234 36 -234 146c0 266 639 58 639 475c0 154 -105 229 -242 270c-50 15 -101 25 -153 25c-56 0 -120 -10 -174 -25c-29 -8 -55 -14 -86 -14c-52 0 -115 10 -162 34l-17 -32c77 -45 107 -63 107 -160c0 -21 1 -43 -2 -64l33 -4c46 104 179 185 291 185c99 0 247 -44 247 -166c0 -35 -1 -72 -16 -104c-12 -26 -36 -51 -57 -70c-113 -107 -557 -66 -557 -334c0 -28 9 -55 23 -80c72 -132 223 -160 360 -160c63 0 124 15 184 31c19 5 38 8 57 8c65 0 115 -19 176 -35zM12030 1838l-2 -34c147 -24 160 -51 160 -203l25 -4c27 48 43 102 69 151c13 25 32 44 51 64c48 51 106 92 179 92c126 0 323 -81 323 -230c0 -265 -618 -397 -618 -673c0 -158 172 -219 300 -252h-411v-123h852v123c-178 0 -282 -10 -443 61c-53 25 -143 77 -143 143c0 231 586 340 586 615c0 255 -202 414 -446 414c-83 0 -178 -39 -246 -86c-24 -17 -43 -28 -71 -35c-55 -13 -112 -10 -165 -23zM11899 771v797h-172v-696c0 -41 -23 -60 -63 -60c-32 0 -63 6 -94 11l-15 -27c207 -46 96 -197 174 -197c87 0 170 85 170 172zM10748 270c-292 0 -418 283 -442 534h885c-19 -250 -155 -534 -443 -534zM11465 886h-1163c0 201 56 414 223 541c69 53 136 75 223 75c213 0 351 -102 461 -278l96 59c-25 45 -58 81 -94 117c-117 115 -275 193 -441 193c-123 0 -235 -17 -343 -76c-227 -124 -340 -376 -340 -627c0 -389 258 -708 661 -708c372 0 623 260 660 622h57v82zM11015 -241v197l-533 150v-50zM9212 851v717h-172v-1114c0 -41 -23 -60 -63 -60c-32 0 -63 11 -94 11l-15 -27c198 -41 101 -196 174 -196c84 0 170 88 170 172v417c68 -35 204 -123 261 -172c148 0 383 71 383 254v715h-175v-680c0 -127 -126 -172 -233 -172c-77 48 -154 97 -236 135zM8088 1359c-34 -43 -68 -85 -98 -131c-73 -110 -141 -227 -209 -340c-84 123 -152 260 -223 391c50 82 154 236 264 236c126 0 185 -71 266 -156zM8381 1568h-106c-53 -47 -100 -103 -146 -156c-84 92 -174 181 -307 181c-128 0 -253 -77 -342 -164c-5 11 -11 23 -16 35l-32 69c-5 12 -10 23 -16 35h-83c42 -107 91 -212 143 -315c110 -220 217 -442 342 -654h53c80 261 340 756 510 969zM6304 814c-30 0 -62 8 -92 11l-15 -29c70 -15 131 -55 138 -131c1 -14 0 -40 5 -52c6 -13 18 -14 31 -14c85 0 170 87 170 172c86 -49 187 -108 261 -172c148 0 383 71 383 254v715h-175v-680c0 -127 -128 -172 -235 -172c-76 49 -152 97 -234 135v717h-172v-696c0 -42 -26 -58 -65 -58zM4856 683c101 -48 211 -84 323 -84c108 0 340 36 340 181c0 147 -290 278 -405 321c198 0 295 139 373 301c13 28 26 62 46 86c12 15 26 23 46 23c23 0 56 -27 73 -41l37 20c-46 50 -92 103 -166 103c-83 0 -150 -19 -205 -84c-17 -18 -37 -41 -49 -62c-14 -24 -24 -53 -36 -79c-35 -70 -70 -134 -134 -181c-45 -33 -111 -39 -165 -41v-61c136 -23 381 -133 381 -297c0 -79 -65 -111 -136 -111c-100 0 -206 36 -297 76v815h-170v-696c0 -41 -23 -60 -63 -60c-30 0 -62 6 -92 11l-17 -27c208 -46 95 -197 174 -197c59 0 108 39 142 84zM4272 1359c-34 -43 -68 -85 -98 -131c-73 -110 -141 -227 -209 -340c-84 123 -152 260 -223 391c50 82 154 236 264 236c126 0 185 -71 266 -156zM4565 1568h-106c-53 -47 -100 -103 -146 -156c-84 92 -174 181 -307 181c-128 0 -253 -77 -342 -164c-5 11 -11 23 -16 35l-32 69c-5 12 -10 23 -16 35h-83c42 -107 91 -212 143 -315c110 -220 217 -442 342 -654h53c80 261 340 756 510 969zM3010 681c-192 0 -244 269 -244 416c0 145 55 416 244 416c194 0 256 -259 256 -412c0 -156 -58 -420 -256 -420zM2527 394c-31 0 -61 11 -92 11l-13 -27c74 -16 127 -54 136 -133c1 -13 2 -39 7 -50c5 -12 20 -13 31 -13c82 0 170 90 170 172v321c73 -50 156 -76 244 -76c257 0 440 225 440 473c0 276 -139 521 -440 521c-291 0 -416 -234 -416 -496v-643c0 -43 -27 -60 -67 -60zM1894 677c-197 0 -254 267 -254 420c0 155 54 416 254 416c195 0 256 -258 256 -412c0 -152 -61 -424 -256 -424zM1894 599c209 0 357 131 413 328c12 44 27 100 27 145c0 277 -134 521 -440 521c-282 0 -444 -232 -444 -496c0 -260 167 -498 444 -498zM393 345h-315v-133h1251v133h-618c-156 0 -281 118 -346 250c-49 100 -68 211 -68 322c0 267 137 585 446 585c209 0 350 -93 461 -266l96 62c-126 190 -330 295 -557 295c-389 0 -661 -284 -661 -670c0 -223 106 -471 311 -578z" />
</svg>
